<svg width="800" height="500" viewBox="0 0 800 500" xmlns="http://www.w3.org/2000/svg"><rect width="800" height="500" fill="#14181c"/><rect x="0" y="0" width="800" height="34" fill="#2b3138"/><text x="16" y="22" fill="#c7ccd1" font-size="13" font-family="ui-monospace,monospace">SIMULATION - Behavioral - i2c_tb_behav.wcfg</text><circle cx="720" cy="17" r="4" fill="#2fd44e"/><text x="732" y="22" fill="#8a9199" font-size="12" font-family="ui-monospace,monospace">run: 20us</text><rect x="0" y="34" width="150" height="466" fill="#333940"/><rect x="150" y="34" width="90" height="466" fill="#20252a"/><rect x="240" y="34" width="560" height="466" fill="#0b0d0f"/><rect x="0" y="34" width="800" height="24" fill="#252b31"/><text x="12" y="50" fill="#9aa1a8" font-size="11" font-family="ui-monospace,monospace">Name</text><text x="160" y="50" fill="#9aa1a8" font-size="11" font-family="ui-monospace,monospace">Value</text><line x1="250" y1="124" x2="250" y2="486" stroke="#1c2126" stroke-width="1"/><line x1="303" y1="124" x2="303" y2="486" stroke="#1c2126" stroke-width="1"/><line x1="356" y1="124" x2="356" y2="486" stroke="#1c2126" stroke-width="1"/><line x1="409" y1="124" x2="409" y2="486" stroke="#1c2126" stroke-width="1"/><line x1="462" y1="124" x2="462" y2="486" stroke="#1c2126" stroke-width="1"/><line x1="515" y1="124" x2="515" y2="486" stroke="#1c2126" stroke-width="1"/><line x1="568" y1="124" x2="568" y2="486" stroke="#1c2126" stroke-width="1"/><line x1="621" y1="124" x2="621" y2="486" stroke="#1c2126" stroke-width="1"/><line x1="674" y1="124" x2="674" y2="486" stroke="#1c2126" stroke-width="1"/><line x1="727" y1="124" x2="727" y2="486" stroke="#1c2126" stroke-width="1"/><line x1="780" y1="124" x2="780" y2="486" stroke="#1c2126" stroke-width="1"/><text x="14" y="148" fill="#d6d9dc" font-size="12.5" font-family="ui-monospace,monospace">clk</text><text x="160" y="148" fill="#2fd44e" font-size="12.5" font-family="ui-monospace,monospace">1</text><polyline points="250,152 263,152 263,136 276,136 276,152 289,152 289,136 302,136 302,152 315,152 315,136 328,136 328,152 341,152 341,136 354,136 354,152 367,152 367,136 380,136 380,152 393,152 393,136 406,136 406,152 419,152 419,136 432,136 432,152 445,152 445,136 458,136 458,152 471,152 471,136 484,136 484,152 497,152 497,136 510,136 510,152 523,152 523,136 536,136 536,152 549,152 549,136 562,136 562,152 575,152 575,136 588,136 588,152 601,152 601,136 614,136 614,152 627,152 627,136 640,136 640,152 653,152 653,136 666,136 666,152 679,152 679,136 692,136 692,152 705,152 705,136 718,136 718,152 731,152 731,136 744,136 744,152 757,152 757,136 770,136 770,152 780,152" fill="none" stroke="#2fd44e" stroke-width="1.6"/><text x="14" y="182" fill="#d6d9dc" font-size="12.5" font-family="ui-monospace,monospace">rst_n</text><text x="160" y="182" fill="#2fd44e" font-size="12.5" font-family="ui-monospace,monospace">1</text><polyline points="250,186 320,186 320,170 780,170" fill="none" stroke="#2fd44e" stroke-width="1.6"/><text x="14" y="216" fill="#d6d9dc" font-size="12.5" font-family="ui-monospace,monospace">scl</text><text x="160" y="216" fill="#2fd44e" font-size="12.5" font-family="ui-monospace,monospace">1</text><polyline points="250,220 289,220 289,204 328,204 328,220 367,220 367,204 406,204 406,220 445,220 445,204 484,204 484,220 523,220 523,204 562,204 562,220 601,220 601,204 640,204 640,220 679,220 679,204 718,204 718,220 757,220 757,204 780,204" fill="none" stroke="#2fd44e" stroke-width="1.6"/><text x="14" y="250" fill="#d6d9dc" font-size="12.5" font-family="ui-monospace,monospace">sda</text><text x="160" y="250" fill="#2fd44e" font-size="12.5" font-family="ui-monospace,monospace">0</text><polyline points="250,238 300,238 300,254 330,254 330,238 370,238 370,254 410,254 410,238 450,238 450,254 490,254 520,254 560,254 560,238 700,238 700,254 740,254 740,238 780,238" fill="none" stroke="#2fd44e" stroke-width="1.6"/><text x="14" y="284" fill="#d6d9dc" font-size="12.5" font-family="ui-monospace,monospace">addr[6:0]</text><text x="160" y="284" fill="#2fd44e" font-size="12.5" font-family="ui-monospace,monospace">50</text><polyline points="256,272 324,272" fill="none" stroke="#5a6b52" stroke-width="1.6"/><polyline points="256,288 324,288" fill="none" stroke="#5a6b52" stroke-width="1.6"/><polyline points="250,280 256,272" fill="none" stroke="#5a6b52" stroke-width="1.6"/><polyline points="250,280 256,288" fill="none" stroke="#5a6b52" stroke-width="1.6"/><polyline points="324,272 330,280" fill="none" stroke="#5a6b52" stroke-width="1.6"/><polyline points="324,288 330,280" fill="none" stroke="#5a6b52" stroke-width="1.6"/><polyline points="336,272 774,272" fill="none" stroke="#2fd44e" stroke-width="1.6"/><polyline points="336,288 774,288" fill="none" stroke="#2fd44e" stroke-width="1.6"/><polyline points="330,280 336,272" fill="none" stroke="#2fd44e" stroke-width="1.6"/><polyline points="330,280 336,288" fill="none" stroke="#2fd44e" stroke-width="1.6"/><polyline points="774,272 780,280" fill="none" stroke="#2fd44e" stroke-width="1.6"/><polyline points="774,288 780,280" fill="none" stroke="#2fd44e" stroke-width="1.6"/><text x="555" y="284" fill="#2fd44e" font-size="12" text-anchor="middle" font-family="ui-monospace,monospace">50</text><text x="14" y="318" fill="#d6d9dc" font-size="12.5" font-family="ui-monospace,monospace">data[7:0]</text><text x="160" y="318" fill="#2fd44e" font-size="12.5" font-family="ui-monospace,monospace">a3</text><polyline points="256,306 394,306" fill="none" stroke="#5a6b52" stroke-width="1.6"/><polyline points="256,322 394,322" fill="none" stroke="#5a6b52" stroke-width="1.6"/><polyline points="250,314 256,306" fill="none" stroke="#5a6b52" stroke-width="1.6"/><polyline points="250,314 256,322" fill="none" stroke="#5a6b52" stroke-width="1.6"/><polyline points="394,306 400,314" fill="none" stroke="#5a6b52" stroke-width="1.6"/><polyline points="394,322 400,314" fill="none" stroke="#5a6b52" stroke-width="1.6"/><polyline points="406,306 554,306" fill="none" stroke="#2fd44e" stroke-width="1.6"/><polyline points="406,322 554,322" fill="none" stroke="#2fd44e" stroke-width="1.6"/><polyline points="400,314 406,306" fill="none" stroke="#2fd44e" stroke-width="1.6"/><polyline points="400,314 406,322" fill="none" stroke="#2fd44e" stroke-width="1.6"/><polyline points="554,306 560,314" fill="none" stroke="#2fd44e" stroke-width="1.6"/><polyline points="554,322 560,314" fill="none" stroke="#2fd44e" stroke-width="1.6"/><text x="480" y="318" fill="#2fd44e" font-size="12" text-anchor="middle" font-family="ui-monospace,monospace">a3</text><polyline points="566,306 774,306" fill="none" stroke="#2fd44e" stroke-width="1.6"/><polyline points="566,322 774,322" fill="none" stroke="#2fd44e" stroke-width="1.6"/><polyline points="560,314 566,306" fill="none" stroke="#2fd44e" stroke-width="1.6"/><polyline points="560,314 566,322" fill="none" stroke="#2fd44e" stroke-width="1.6"/><polyline points="774,306 780,314" fill="none" stroke="#2fd44e" stroke-width="1.6"/><polyline points="774,322 780,314" fill="none" stroke="#2fd44e" stroke-width="1.6"/><text x="670" y="318" fill="#2fd44e" font-size="12" text-anchor="middle" font-family="ui-monospace,monospace">5c</text><text x="14" y="352" fill="#d6d9dc" font-size="12.5" font-family="ui-monospace,monospace">ack</text><text x="160" y="352" fill="#2fd44e" font-size="12.5" font-family="ui-monospace,monospace">0</text><polyline points="250,356 520,356 520,340 560,340 560,356 780,356" fill="none" stroke="#2fd44e" stroke-width="1.6"/><text x="14" y="386" fill="#d6d9dc" font-size="12.5" font-family="ui-monospace,monospace">done</text><text x="160" y="386" fill="#2fd44e" font-size="12.5" font-family="ui-monospace,monospace">1</text><polyline points="250,390 710,390 710,374 780,374" fill="none" stroke="#2fd44e" stroke-width="1.6"/><line x1="560" y1="58" x2="560" y2="492" stroke="#e6c84b" stroke-width="1" stroke-dasharray="0"/><polygon points="554,58 566,58 560,66" fill="#e6c84b"/></svg>
